ply
format ascii 1.0
comment Created by Blender 2.73 (sub 0) - www.blender.org, source file: ''
element vertex 462
property float x
property float y
property float z
property float nx
property float ny
property float nz
element face 121
property list uchar uint vertex_indices
end_header
-0.281733 0.000000 -0.959493 -0.412359 0.121079 -0.902940
-0.540641 0.000000 -0.841254 -0.412359 0.121079 -0.902940
-0.454816 0.292292 -0.841254 -0.412359 0.121079 -0.902940
-0.237009 0.152316 -0.959493 -0.412359 0.121079 -0.902940
-0.989821 0.000000 0.142315 -0.923541 0.271176 0.271176
-0.909632 0.000000 0.415415 -0.923541 0.271176 0.271176
-0.765231 0.491784 0.415415 -0.923541 0.271176 0.271176
-0.832691 0.535138 0.142315 -0.923541 0.271176 0.271176
-0.540641 0.000000 0.841254 -0.412359 0.121079 0.902940
-0.281733 0.000000 0.959493 -0.412359 0.121079 0.902940
-0.237009 0.152316 0.959493 -0.412359 0.121079 0.902940
-0.454816 0.292292 0.841254 -0.412359 0.121079 0.902940
-0.237009 0.152316 -0.959493 -0.281438 0.324797 -0.902940
-0.454816 0.292292 -0.841254 -0.281438 0.324797 -0.902940
-0.224590 0.491784 -0.841254 -0.281438 0.324797 -0.902940
-0.117036 0.256273 -0.959493 -0.281438 0.324797 -0.902940
-0.454816 0.292292 -0.841254 -0.438907 0.506525 -0.742154
-0.635777 0.408589 -0.654861 -0.438907 0.506525 -0.742154
-0.313950 0.687454 -0.654861 -0.438907 0.506525 -0.742154
-0.224590 0.491784 -0.841254 -0.438907 0.506525 -0.742154
-0.635777 0.408589 -0.654861 -0.557408 0.643283 -0.524866
-0.765231 0.491784 -0.415415 -0.557408 0.643283 -0.524866
-0.377875 0.827430 -0.415415 -0.557408 0.643283 -0.524866
-0.313950 0.687454 -0.654861 -0.557408 0.643283 -0.524866
-0.765231 0.491784 -0.415415 -0.630323 0.727431 -0.271176
-0.832691 0.535138 -0.142315 -0.630323 0.727431 -0.271176
-0.411187 0.900373 -0.142315 -0.630323 0.727431 -0.271176
-0.377875 0.827430 -0.415415 -0.630323 0.727431 -0.271176
-0.832691 0.535138 -0.142315 -0.654861 0.755750 0.000000
-0.832691 0.535138 0.142315 -0.654861 0.755750 0.000000
-0.411187 0.900373 0.142315 -0.654861 0.755750 0.000000
-0.411187 0.900373 -0.142315 -0.654861 0.755750 0.000000
-0.832691 0.535138 0.142315 -0.630323 0.727432 0.271176
-0.765231 0.491784 0.415415 -0.630323 0.727432 0.271176
-0.377875 0.827430 0.415415 -0.630323 0.727432 0.271176
-0.411187 0.900373 0.142315 -0.630323 0.727432 0.271176
-0.765231 0.491784 0.415415 -0.557408 0.643283 0.524865
-0.635777 0.408589 0.654861 -0.557408 0.643283 0.524865
-0.313950 0.687454 0.654861 -0.557408 0.643283 0.524865
-0.377875 0.827430 0.415415 -0.557408 0.643283 0.524865
-0.635777 0.408589 0.654861 -0.438907 0.506526 0.742154
-0.454816 0.292292 0.841254 -0.438907 0.506526 0.742154
-0.224590 0.491784 0.841254 -0.438907 0.506526 0.742154
-0.313950 0.687454 0.654861 -0.438907 0.506526 0.742154
-0.454816 0.292292 0.841254 -0.281438 0.324797 0.902940
-0.237009 0.152316 0.959493 -0.281438 0.324797 0.902940
-0.117036 0.256273 0.959493 -0.281438 0.324797 0.902940
-0.224590 0.491784 0.841254 -0.281438 0.324797 0.902940
-0.117036 0.256273 -0.959493 -0.061162 0.425393 -0.902940
-0.224590 0.491784 -0.841254 -0.061162 0.425393 -0.902940
0.076941 0.535138 -0.841254 -0.061162 0.425393 -0.902940
0.040095 0.278865 -0.959493 -0.061162 0.425393 -0.902940
-0.224590 0.491784 -0.841254 -0.095384 0.663407 -0.742154
-0.313950 0.687454 -0.654861 -0.095384 0.663407 -0.742154
0.107554 0.748057 -0.654861 -0.095384 0.663407 -0.742154
0.076941 0.535138 -0.841254 -0.095384 0.663407 -0.742154
-0.313950 0.687454 -0.654861 -0.121136 0.842521 -0.524865
-0.377875 0.827430 -0.415415 -0.121136 0.842521 -0.524865
0.129454 0.900373 -0.415415 -0.121136 0.842521 -0.524865
0.107554 0.748057 -0.654861 -0.121136 0.842521 -0.524865
-0.377875 0.827430 -0.415415 -0.136982 0.952733 -0.271176
-0.411187 0.900373 -0.142315 -0.136982 0.952733 -0.271176
0.140866 0.979746 -0.142315 -0.136982 0.952733 -0.271176
0.129454 0.900373 -0.415415 -0.136982 0.952733 -0.271176
-0.411187 0.900373 -0.142315 -0.142315 0.989821 0.000000
-0.411187 0.900373 0.142315 -0.142315 0.989821 0.000000
0.140866 0.979746 0.142315 -0.142315 0.989821 0.000000
0.140866 0.979746 -0.142315 -0.142315 0.989821 0.000000
-0.411187 0.900373 0.142315 -0.136982 0.952733 0.271176
-0.377875 0.827430 0.415415 -0.136982 0.952733 0.271176
0.129454 0.900373 0.415415 -0.136982 0.952733 0.271176
0.140866 0.979746 0.142315 -0.136982 0.952733 0.271176
-0.377875 0.827430 0.415415 -0.121136 0.842521 0.524865
-0.313950 0.687454 0.654861 -0.121136 0.842521 0.524865
0.107554 0.748057 0.654861 -0.121136 0.842521 0.524865
0.129454 0.900373 0.415415 -0.121136 0.842521 0.524865
-0.313950 0.687454 0.654861 -0.095384 0.663407 0.742154
-0.224590 0.491784 0.841254 -0.095384 0.663407 0.742154
0.076941 0.535138 0.841254 -0.095384 0.663407 0.742154
0.107554 0.748057 0.654861 -0.095384 0.663407 0.742154
-0.224590 0.491784 0.841254 -0.061162 0.425393 0.902940
-0.117036 0.256273 0.959493 -0.061162 0.425393 0.902940
0.040095 0.278865 0.959493 -0.061162 0.425393 0.902940
0.076941 0.535138 0.841254 -0.061162 0.425393 0.902940
0.040095 0.278865 -0.959493 0.178532 0.390930 -0.902940
0.076941 0.535138 -0.841254 0.178532 0.390930 -0.902940
0.354044 0.408589 -0.841254 0.178532 0.390930 -0.902940
0.184495 0.212919 -0.959493 0.178532 0.390930 -0.902940
0.076941 0.535138 -0.841254 0.278423 0.609662 -0.742154
0.107554 0.748057 -0.654861 0.278423 0.609662 -0.742154
0.494910 0.571157 -0.654861 0.278423 0.609662 -0.742154
0.354044 0.408589 -0.841254 0.278423 0.609662 -0.742154
0.107554 0.748057 -0.654861 0.353595 0.774265 -0.524865
0.129454 0.900373 -0.415415 0.353595 0.774265 -0.524865
0.595682 0.687454 -0.415415 0.353595 0.774265 -0.524865
0.494910 0.571157 -0.654861 0.353595 0.774265 -0.524865
0.129454 0.900373 -0.415415 0.399849 0.875548 -0.271176
0.140866 0.979746 -0.142315 0.399849 0.875548 -0.271176
0.648195 0.748057 -0.142315 0.399849 0.875548 -0.271176
0.595682 0.687454 -0.415415 0.399849 0.875548 -0.271176
0.140866 0.979746 -0.142315 0.415415 0.909632 0.000000
0.140866 0.979746 0.142315 0.415415 0.909632 0.000000
0.648195 0.748057 0.142315 0.415415 0.909632 0.000000
0.648195 0.748057 -0.142315 0.415415 0.909632 0.000000
0.140866 0.979746 0.142315 0.399849 0.875548 0.271176
0.129454 0.900373 0.415415 0.399849 0.875548 0.271176
0.595682 0.687454 0.415415 0.399849 0.875548 0.271176
0.648195 0.748057 0.142315 0.399849 0.875548 0.271176
0.129454 0.900373 0.415415 0.353595 0.774265 0.524865
0.107554 0.748057 0.654861 0.353595 0.774265 0.524865
0.494910 0.571157 0.654861 0.353595 0.774265 0.524865
0.595682 0.687454 0.415415 0.353595 0.774265 0.524865
0.107554 0.748057 0.654861 0.278423 0.609662 0.742154
0.076941 0.535138 0.841254 0.278423 0.609662 0.742154
0.354044 0.408589 0.841254 0.278423 0.609662 0.742154
0.494910 0.571157 0.654861 0.278423 0.609662 0.742154
0.076941 0.535138 0.841254 0.178532 0.390930 0.902940
0.040095 0.278865 0.959493 0.178532 0.390930 0.902940
0.184495 0.212919 0.959493 0.178532 0.390930 0.902940
0.354044 0.408589 0.841254 0.178532 0.390930 0.902940
0.184495 0.212919 -0.959493 0.361543 0.232350 -0.902940
0.354044 0.408589 -0.841254 0.361543 0.232350 -0.902940
0.518741 0.152316 -0.841254 0.361543 0.232350 -0.902940
0.270320 0.079373 -0.959493 0.361543 0.232350 -0.902940
0.354044 0.408589 -0.841254 0.563833 0.362353 -0.742154
0.494910 0.571157 -0.654861 0.563833 0.362353 -0.742154
0.725136 0.212919 -0.654861 0.563833 0.362353 -0.742154
0.518741 0.152316 -0.841254 0.563833 0.362353 -0.742154
0.494910 0.571157 -0.654861 0.716062 0.460186 -0.524865
0.595682 0.687454 -0.415415 0.716062 0.460186 -0.524865
0.872785 0.256273 -0.415415 0.716062 0.460186 -0.524865
0.725136 0.212919 -0.654861 0.716062 0.460186 -0.524865
0.595682 0.687454 -0.415415 0.809731 0.520383 -0.271176
0.648195 0.748057 -0.142315 0.809731 0.520383 -0.271176
0.949726 0.278865 -0.142315 0.809731 0.520383 -0.271176
0.872785 0.256273 -0.415415 0.809731 0.520383 -0.271176
0.648195 0.748057 -0.142315 0.841254 0.540641 0.000000
0.648195 0.748057 0.142315 0.841254 0.540641 0.000000
0.949726 0.278865 0.142315 0.841254 0.540641 0.000000
0.949726 0.278865 -0.142315 0.841254 0.540641 0.000000
0.648195 0.748057 0.142315 0.809732 0.520383 0.271176
0.595682 0.687454 0.415415 0.809732 0.520383 0.271176
0.872785 0.256273 0.415415 0.809732 0.520383 0.271176
0.949726 0.278865 0.142315 0.809732 0.520383 0.271176
0.595682 0.687454 0.415415 0.716063 0.460186 0.524865
0.494910 0.571157 0.654861 0.716063 0.460186 0.524865
0.725136 0.212919 0.654861 0.716063 0.460186 0.524865
0.872785 0.256273 0.415415 0.716063 0.460186 0.524865
0.494910 0.571157 0.654861 0.563833 0.362353 0.742154
0.354044 0.408589 0.841254 0.563833 0.362353 0.742154
0.518741 0.152316 0.841254 0.563833 0.362353 0.742154
0.725136 0.212919 0.654861 0.563833 0.362353 0.742154
0.354044 0.408589 0.841254 0.361543 0.232350 0.902940
0.184495 0.212919 0.959493 0.361543 0.232350 0.902940
0.270320 0.079373 0.959493 0.361543 0.232350 0.902940
0.518741 0.152316 0.841254 0.361543 0.232350 0.902940
0.270320 0.079373 -0.959493 0.429767 0.000000 -0.902940
0.518741 0.152316 -0.841254 0.429767 0.000000 -0.902940
0.518741 -0.152316 -0.841254 0.429767 0.000000 -0.902940
0.270320 -0.079373 -0.959493 0.429767 0.000000 -0.902940
0.518741 0.152316 -0.841254 0.670229 0.000000 -0.742154
0.725136 0.212919 -0.654861 0.670229 0.000000 -0.742154
0.725136 -0.212919 -0.654861 0.670229 0.000000 -0.742154
0.518741 -0.152316 -0.841254 0.670229 0.000000 -0.742154
0.725136 0.212919 -0.654861 0.851185 0.000000 -0.524865
0.872785 0.256273 -0.415415 0.851185 0.000000 -0.524865
0.872785 -0.256273 -0.415415 0.851185 0.000000 -0.524865
0.725136 -0.212919 -0.654861 0.851185 0.000000 -0.524865
0.872785 0.256273 -0.415415 0.962530 0.000000 -0.271176
0.949726 0.278865 -0.142315 0.962530 0.000000 -0.271176
0.949726 -0.278865 -0.142315 0.962530 0.000000 -0.271176
0.872785 -0.256273 -0.415415 0.962530 0.000000 -0.271176
0.949726 0.278865 -0.142315 1.000000 0.000000 0.000000
0.949726 0.278865 0.142315 1.000000 0.000000 0.000000
0.949726 -0.278865 0.142315 1.000000 0.000000 0.000000
0.949726 -0.278865 -0.142315 1.000000 0.000000 0.000000
0.949726 0.278865 0.142315 0.962530 0.000000 0.271176
0.872785 0.256273 0.415415 0.962530 0.000000 0.271176
0.872785 -0.256273 0.415415 0.962530 0.000000 0.271176
0.949726 -0.278865 0.142315 0.962530 0.000000 0.271176
0.872785 0.256273 0.415415 0.851185 0.000000 0.524865
0.725136 0.212919 0.654861 0.851185 0.000000 0.524865
0.725136 -0.212919 0.654861 0.851185 0.000000 0.524865
0.872785 -0.256273 0.415415 0.851185 0.000000 0.524865
0.725136 0.212919 0.654861 0.670229 0.000000 0.742154
0.518741 0.152316 0.841254 0.670229 0.000000 0.742154
0.518741 -0.152316 0.841254 0.670229 0.000000 0.742154
0.725136 -0.212919 0.654861 0.670229 0.000000 0.742154
0.518741 0.152316 0.841254 0.429767 0.000000 0.902940
0.270320 0.079373 0.959493 0.429767 0.000000 0.902940
0.270320 -0.079373 0.959493 0.429767 0.000000 0.902940
0.518741 -0.152316 0.841254 0.429767 0.000000 0.902940
0.270320 -0.079373 -0.959493 0.361543 -0.232350 -0.902940
0.518741 -0.152316 -0.841254 0.361543 -0.232350 -0.902940
0.354044 -0.408589 -0.841254 0.361543 -0.232350 -0.902940
0.184495 -0.212919 -0.959493 0.361543 -0.232350 -0.902940
0.518741 -0.152316 -0.841254 0.563833 -0.362353 -0.742154
0.725136 -0.212919 -0.654861 0.563833 -0.362353 -0.742154
0.494910 -0.571157 -0.654861 0.563833 -0.362353 -0.742154
0.354044 -0.408589 -0.841254 0.563833 -0.362353 -0.742154
0.725136 -0.212919 -0.654861 0.716063 -0.460185 -0.524865
0.872785 -0.256273 -0.415415 0.716063 -0.460185 -0.524865
0.595682 -0.687454 -0.415415 0.716063 -0.460185 -0.524865
0.494910 -0.571157 -0.654861 0.716063 -0.460185 -0.524865
0.872785 -0.256273 -0.415415 0.809732 -0.520383 -0.271176
0.949726 -0.278865 -0.142315 0.809732 -0.520383 -0.271176
0.648195 -0.748057 -0.142315 0.809732 -0.520383 -0.271176
0.595682 -0.687454 -0.415415 0.809732 -0.520383 -0.271176
0.949726 -0.278865 -0.142315 0.841254 -0.540641 0.000000
0.949726 -0.278865 0.142315 0.841254 -0.540641 0.000000
0.648195 -0.748057 0.142315 0.841254 -0.540641 0.000000
0.648195 -0.748057 -0.142315 0.841254 -0.540641 0.000000
0.949726 -0.278865 0.142315 0.809732 -0.520383 0.271176
0.872785 -0.256273 0.415415 0.809732 -0.520383 0.271176
0.595682 -0.687454 0.415415 0.809732 -0.520383 0.271176
0.648195 -0.748057 0.142315 0.809732 -0.520383 0.271176
0.872785 -0.256273 0.415415 0.716063 -0.460185 0.524865
0.725136 -0.212919 0.654861 0.716063 -0.460185 0.524865
0.494911 -0.571157 0.654861 0.716063 -0.460185 0.524865
0.595682 -0.687454 0.415415 0.716063 -0.460185 0.524865
0.725136 -0.212919 0.654861 0.563833 -0.362353 0.742154
0.518741 -0.152316 0.841254 0.563833 -0.362353 0.742154
0.354044 -0.408589 0.841254 0.563833 -0.362353 0.742154
0.494911 -0.571157 0.654861 0.563833 -0.362353 0.742154
0.518741 -0.152316 0.841254 0.361543 -0.232350 0.902940
0.270320 -0.079373 0.959493 0.361543 -0.232350 0.902940
0.184495 -0.212919 0.959493 0.361543 -0.232350 0.902940
0.354044 -0.408589 0.841254 0.361543 -0.232350 0.902940
0.184495 -0.212919 -0.959493 0.178532 -0.390930 -0.902940
0.354044 -0.408589 -0.841254 0.178532 -0.390930 -0.902940
0.076941 -0.535138 -0.841254 0.178532 -0.390930 -0.902940
0.040095 -0.278865 -0.959493 0.178532 -0.390930 -0.902940
0.354044 -0.408589 -0.841254 0.278423 -0.609662 -0.742154
0.494910 -0.571157 -0.654861 0.278423 -0.609662 -0.742154
0.107554 -0.748057 -0.654861 0.278423 -0.609662 -0.742154
0.076941 -0.535138 -0.841254 0.278423 -0.609662 -0.742154
0.494910 -0.571157 -0.654861 0.353595 -0.774265 -0.524865
0.595682 -0.687454 -0.415415 0.353595 -0.774265 -0.524865
0.129454 -0.900373 -0.415415 0.353595 -0.774265 -0.524865
0.107554 -0.748057 -0.654861 0.353595 -0.774265 -0.524865
0.595682 -0.687454 -0.415415 0.399849 -0.875548 -0.271176
0.648195 -0.748057 -0.142315 0.399849 -0.875548 -0.271176
0.140866 -0.979746 -0.142315 0.399849 -0.875548 -0.271176
0.129454 -0.900373 -0.415415 0.399849 -0.875548 -0.271176
0.648195 -0.748057 -0.142315 0.415415 -0.909632 0.000000
0.648195 -0.748057 0.142315 0.415415 -0.909632 0.000000
0.140866 -0.979746 0.142315 0.415415 -0.909632 0.000000
0.140866 -0.979746 -0.142315 0.415415 -0.909632 0.000000
0.648195 -0.748057 0.142315 0.399849 -0.875548 0.271176
0.595682 -0.687454 0.415415 0.399849 -0.875548 0.271176
0.129454 -0.900373 0.415415 0.399849 -0.875548 0.271176
0.140866 -0.979746 0.142315 0.399849 -0.875548 0.271176
0.595682 -0.687454 0.415415 0.353595 -0.774265 0.524865
0.494911 -0.571157 0.654861 0.353595 -0.774265 0.524865
0.107554 -0.748057 0.654861 0.353595 -0.774265 0.524865
0.129454 -0.900373 0.415415 0.353595 -0.774265 0.524865
0.494911 -0.571157 0.654861 0.278423 -0.609662 0.742154
0.354044 -0.408589 0.841254 0.278423 -0.609662 0.742154
0.076941 -0.535138 0.841254 0.278423 -0.609662 0.742154
0.107554 -0.748057 0.654861 0.278423 -0.609662 0.742154
0.354044 -0.408589 0.841254 0.178532 -0.390930 0.902940
0.184495 -0.212919 0.959493 0.178532 -0.390930 0.902940
0.040095 -0.278865 0.959493 0.178532 -0.390930 0.902940
0.076941 -0.535138 0.841254 0.178532 -0.390930 0.902940
0.040095 -0.278865 -0.959493 -0.061162 -0.425393 -0.902940
0.076941 -0.535138 -0.841254 -0.061162 -0.425393 -0.902940
-0.224590 -0.491784 -0.841254 -0.061162 -0.425393 -0.902940
-0.117036 -0.256273 -0.959493 -0.061162 -0.425393 -0.902940
0.076941 -0.535138 -0.841254 -0.095383 -0.663407 -0.742154
0.107554 -0.748057 -0.654861 -0.095383 -0.663407 -0.742154
-0.313949 -0.687454 -0.654861 -0.095383 -0.663407 -0.742154
-0.224590 -0.491784 -0.841254 -0.095383 -0.663407 -0.742154
0.107554 -0.748057 -0.654861 -0.121136 -0.842521 -0.524865
0.129454 -0.900373 -0.415415 -0.121136 -0.842521 -0.524865
-0.377874 -0.827430 -0.415415 -0.121136 -0.842521 -0.524865
-0.313949 -0.687454 -0.654861 -0.121136 -0.842521 -0.524865
0.129454 -0.900373 -0.415415 -0.136982 -0.952733 -0.271176
0.140866 -0.979746 -0.142315 -0.136982 -0.952733 -0.271176
-0.411186 -0.900373 -0.142315 -0.136982 -0.952733 -0.271176
-0.377874 -0.827430 -0.415415 -0.136982 -0.952733 -0.271176
0.140866 -0.979746 -0.142315 -0.142315 -0.989821 0.000000
0.140866 -0.979746 0.142315 -0.142315 -0.989821 0.000000
-0.411186 -0.900373 0.142315 -0.142315 -0.989821 0.000000
-0.411186 -0.900373 -0.142315 -0.142315 -0.989821 0.000000
0.140866 -0.979746 0.142315 -0.136982 -0.952733 0.271176
0.129454 -0.900373 0.415415 -0.136982 -0.952733 0.271176
-0.377875 -0.827430 0.415415 -0.136982 -0.952733 0.271176
-0.411186 -0.900373 0.142315 -0.136982 -0.952733 0.271176
0.129454 -0.900373 0.415415 -0.121136 -0.842521 0.524865
0.107554 -0.748057 0.654861 -0.121136 -0.842521 0.524865
-0.313949 -0.687454 0.654861 -0.121136 -0.842521 0.524865
-0.377875 -0.827430 0.415415 -0.121136 -0.842521 0.524865
0.107554 -0.748057 0.654861 -0.095383 -0.663407 0.742154
0.076941 -0.535138 0.841254 -0.095383 -0.663407 0.742154
-0.224590 -0.491784 0.841254 -0.095383 -0.663407 0.742154
-0.313949 -0.687454 0.654861 -0.095383 -0.663407 0.742154
0.076941 -0.535138 0.841254 -0.061162 -0.425393 0.902940
0.040095 -0.278865 0.959493 -0.061162 -0.425393 0.902940
-0.117036 -0.256273 0.959493 -0.061162 -0.425393 0.902940
-0.224590 -0.491784 0.841254 -0.061162 -0.425393 0.902940
-0.117036 -0.256273 -0.959493 -0.281438 -0.324797 -0.902940
-0.224590 -0.491784 -0.841254 -0.281438 -0.324797 -0.902940
-0.454816 -0.292293 -0.841254 -0.281438 -0.324797 -0.902940
-0.237008 -0.152316 -0.959493 -0.281438 -0.324797 -0.902940
-0.224590 -0.491784 -0.841254 -0.438907 -0.506526 -0.742154
-0.313949 -0.687454 -0.654861 -0.438907 -0.506526 -0.742154
-0.635777 -0.408589 -0.654861 -0.438907 -0.506526 -0.742154
-0.454816 -0.292293 -0.841254 -0.438907 -0.506526 -0.742154
-0.313949 -0.687454 -0.654861 -0.557408 -0.643283 -0.524865
-0.377874 -0.827430 -0.415415 -0.557408 -0.643283 -0.524865
-0.765231 -0.491784 -0.415415 -0.557408 -0.643283 -0.524865
-0.635777 -0.408589 -0.654861 -0.557408 -0.643283 -0.524865
-0.377874 -0.827430 -0.415415 -0.630323 -0.727432 -0.271176
-0.411186 -0.900373 -0.142315 -0.630323 -0.727432 -0.271176
-0.832690 -0.535138 -0.142315 -0.630323 -0.727432 -0.271176
-0.765231 -0.491784 -0.415415 -0.630323 -0.727432 -0.271176
-0.411186 -0.900373 -0.142315 -0.654861 -0.755750 0.000000
-0.411186 -0.900373 0.142315 -0.654861 -0.755750 0.000000
-0.832690 -0.535138 0.142315 -0.654861 -0.755750 0.000000
-0.832690 -0.535138 -0.142315 -0.654861 -0.755750 0.000000
-0.411186 -0.900373 0.142315 -0.630323 -0.727432 0.271176
-0.377875 -0.827430 0.415415 -0.630323 -0.727432 0.271176
-0.765231 -0.491784 0.415415 -0.630323 -0.727432 0.271176
-0.832690 -0.535138 0.142315 -0.630323 -0.727432 0.271176
-0.377875 -0.827430 0.415415 -0.557408 -0.643283 0.524865
-0.313949 -0.687454 0.654861 -0.557408 -0.643283 0.524865
-0.635777 -0.408589 0.654861 -0.557408 -0.643283 0.524865
-0.765231 -0.491784 0.415415 -0.557408 -0.643283 0.524865
-0.313949 -0.687454 0.654861 -0.438907 -0.506526 0.742154
-0.224590 -0.491784 0.841254 -0.438907 -0.506526 0.742154
-0.454816 -0.292293 0.841254 -0.438907 -0.506526 0.742154
-0.635777 -0.408589 0.654861 -0.438907 -0.506526 0.742154
-0.224590 -0.491784 0.841254 -0.281438 -0.324797 0.902940
-0.117036 -0.256273 0.959493 -0.281438 -0.324797 0.902940
-0.237008 -0.152316 0.959493 -0.281438 -0.324797 0.902940
-0.454816 -0.292293 0.841254 -0.281438 -0.324797 0.902940
-0.635777 -0.408589 -0.654861 -0.816706 -0.239807 -0.524865
-0.765231 -0.491784 -0.415415 -0.816706 -0.239807 -0.524865
-0.909632 -0.000000 -0.415415 -0.816706 -0.239807 -0.524865
-0.755749 -0.000000 -0.654861 -0.816706 -0.239807 -0.524865
-0.765231 -0.491784 -0.415415 -0.923540 -0.271176 -0.271176
-0.832690 -0.535138 -0.142315 -0.923540 -0.271176 -0.271176
-0.989821 -0.000000 -0.142315 -0.923540 -0.271176 -0.271176
-0.909632 -0.000000 -0.415415 -0.923540 -0.271176 -0.271176
-0.000000 0.000000 -1.000000 -0.142191 0.041751 -0.988958
-0.281733 0.000000 -0.959493 -0.142191 0.041751 -0.988958
-0.237009 0.152316 -0.959493 -0.142191 0.041751 -0.988958
-0.540641 0.000000 -0.841254 -0.643081 0.188825 -0.742154
-0.755749 -0.000000 -0.654861 -0.643081 0.188825 -0.742154
-0.635777 0.408589 -0.654861 -0.643081 0.188825 -0.742154
-0.454816 0.292292 -0.841254 -0.643081 0.188825 -0.742154
-0.755749 -0.000000 -0.654861 -0.816706 0.239806 -0.524865
-0.909632 -0.000000 -0.415415 -0.816706 0.239806 -0.524865
-0.765231 0.491784 -0.415415 -0.816706 0.239806 -0.524865
-0.635777 0.408589 -0.654861 -0.816706 0.239806 -0.524865
-0.909632 -0.000000 -0.415415 -0.923541 0.271175 -0.271176
-0.989821 -0.000000 -0.142315 -0.923541 0.271175 -0.271176
-0.832691 0.535138 -0.142315 -0.923541 0.271175 -0.271176
-0.765231 0.491784 -0.415415 -0.923541 0.271175 -0.271176
-0.989821 -0.000000 -0.142315 -0.959493 0.281732 -0.000001
-0.989821 0.000000 0.142315 -0.959493 0.281732 -0.000001
-0.832691 0.535138 0.142315 -0.959493 0.281732 -0.000001
-0.832691 0.535138 -0.142315 -0.959493 0.281732 -0.000001
-0.909632 0.000000 0.415415 -0.816706 0.239806 0.524866
-0.755749 -0.000000 0.654861 -0.816706 0.239806 0.524866
-0.635777 0.408589 0.654861 -0.816706 0.239806 0.524866
-0.765231 0.491784 0.415415 -0.816706 0.239806 0.524866
-0.755749 -0.000000 0.654861 -0.643081 0.188825 0.742154
-0.540641 0.000000 0.841254 -0.643081 0.188825 0.742154
-0.454816 0.292292 0.841254 -0.643081 0.188825 0.742154
-0.635777 0.408589 0.654861 -0.643081 0.188825 0.742154
-0.281733 0.000000 0.959493 -0.142191 0.041751 0.988958
-0.000000 -0.000000 1.000000 -0.142191 0.041751 0.988958
-0.237009 0.152316 0.959493 -0.142191 0.041751 0.988958
-0.000000 0.000000 -1.000000 -0.097046 0.111997 -0.988958
-0.237009 0.152316 -0.959493 -0.097046 0.111997 -0.988958
-0.117036 0.256273 -0.959493 -0.097046 0.111997 -0.988958
-0.237009 0.152316 0.959493 -0.097046 0.111997 0.988958
-0.000000 -0.000000 1.000000 -0.097046 0.111997 0.988958
-0.117036 0.256273 0.959493 -0.097046 0.111997 0.988958
-0.000000 0.000000 -1.000000 -0.021090 0.146685 -0.988958
-0.117036 0.256273 -0.959493 -0.021090 0.146685 -0.988958
0.040095 0.278865 -0.959493 -0.021090 0.146685 -0.988958
-0.117036 0.256273 0.959493 -0.021090 0.146685 0.988958
-0.000000 -0.000000 1.000000 -0.021090 0.146685 0.988958
0.040095 0.278865 0.959493 -0.021090 0.146685 0.988958
-0.000000 0.000000 -1.000000 0.061562 0.134802 -0.988958
0.040095 0.278865 -0.959493 0.061562 0.134802 -0.988958
0.184495 0.212919 -0.959493 0.061562 0.134802 -0.988958
0.040095 0.278865 0.959493 0.061562 0.134802 0.988958
-0.000000 -0.000000 1.000000 0.061562 0.134802 0.988958
0.184495 0.212919 0.959493 0.061562 0.134802 0.988958
-0.000000 0.000000 -1.000000 0.124668 0.080120 -0.988958
0.184495 0.212919 -0.959493 0.124668 0.080120 -0.988958
0.270320 0.079373 -0.959493 0.124668 0.080120 -0.988958
0.184495 0.212919 0.959493 0.124668 0.080120 0.988958
-0.000000 -0.000000 1.000000 0.124668 0.080120 0.988958
0.270320 0.079373 0.959493 0.124668 0.080120 0.988958
-0.000000 0.000000 -1.000000 0.148194 0.000000 -0.988958
0.270320 0.079373 -0.959493 0.148194 0.000000 -0.988958
0.270320 -0.079373 -0.959493 0.148194 0.000000 -0.988958
0.270320 0.079373 0.959493 0.148194 0.000000 0.988958
-0.000000 -0.000000 1.000000 0.148194 0.000000 0.988958
0.270320 -0.079373 0.959493 0.148194 0.000000 0.988958
-0.000000 0.000000 -1.000000 0.124668 -0.080120 -0.988958
0.270320 -0.079373 -0.959493 0.124668 -0.080120 -0.988958
0.184495 -0.212919 -0.959493 0.124668 -0.080120 -0.988958
0.270320 -0.079373 0.959493 0.124668 -0.080120 0.988958
-0.000000 -0.000000 1.000000 0.124668 -0.080120 0.988958
0.184495 -0.212919 0.959493 0.124668 -0.080120 0.988958
-0.000000 0.000000 -1.000000 0.061562 -0.134802 -0.988958
0.184495 -0.212919 -0.959493 0.061562 -0.134802 -0.988958
0.040095 -0.278865 -0.959493 0.061562 -0.134802 -0.988958
0.184495 -0.212919 0.959493 0.061562 -0.134802 0.988958
-0.000000 -0.000000 1.000000 0.061562 -0.134802 0.988958
0.040095 -0.278865 0.959493 0.061562 -0.134802 0.988958
-0.000000 0.000000 -1.000000 -0.021090 -0.146685 -0.988958
0.040095 -0.278865 -0.959493 -0.021090 -0.146685 -0.988958
-0.117036 -0.256273 -0.959493 -0.021090 -0.146685 -0.988958
0.040095 -0.278865 0.959493 -0.021090 -0.146685 0.988958
-0.000000 -0.000000 1.000000 -0.021090 -0.146685 0.988958
-0.117036 -0.256273 0.959493 -0.021090 -0.146685 0.988958
-0.000000 0.000000 -1.000000 -0.097046 -0.111997 -0.988958
-0.117036 -0.256273 -0.959493 -0.097046 -0.111997 -0.988958
-0.237008 -0.152316 -0.959493 -0.097046 -0.111997 -0.988958
-0.117036 -0.256273 0.959493 -0.097046 -0.111997 0.988958
-0.000000 -0.000000 1.000000 -0.097046 -0.111997 0.988958
-0.237008 -0.152316 0.959493 -0.097046 -0.111997 0.988958
-0.000000 0.000000 -1.000000 -0.142191 -0.041751 -0.988958
-0.237008 -0.152316 -0.959493 -0.142191 -0.041751 -0.988958
-0.281733 0.000000 -0.959493 -0.142191 -0.041751 -0.988958
-0.237008 -0.152316 -0.959493 -0.412359 -0.121080 -0.902940
-0.454816 -0.292293 -0.841254 -0.412359 -0.121080 -0.902940
-0.540641 0.000000 -0.841254 -0.412359 -0.121080 -0.902940
-0.281733 0.000000 -0.959493 -0.412359 -0.121080 -0.902940
-0.454816 -0.292293 -0.841254 -0.643080 -0.188826 -0.742154
-0.635777 -0.408589 -0.654861 -0.643080 -0.188826 -0.742154
-0.755749 -0.000000 -0.654861 -0.643080 -0.188826 -0.742154
-0.540641 0.000000 -0.841254 -0.643080 -0.188826 -0.742154
-0.832690 -0.535138 -0.142315 -0.959493 -0.281733 -0.000000
-0.832690 -0.535138 0.142315 -0.959493 -0.281733 -0.000000
-0.989821 0.000000 0.142315 -0.959493 -0.281733 -0.000000
-0.989821 -0.000000 -0.142315 -0.959493 -0.281733 -0.000000
-0.832690 -0.535138 0.142315 -0.923540 -0.271177 0.271176
-0.765231 -0.491784 0.415415 -0.923540 -0.271177 0.271176
-0.909632 0.000000 0.415415 -0.923540 -0.271177 0.271176
-0.989821 0.000000 0.142315 -0.923540 -0.271177 0.271176
-0.765231 -0.491784 0.415415 -0.816706 -0.239807 0.524865
-0.635777 -0.408589 0.654861 -0.816706 -0.239807 0.524865
-0.755749 -0.000000 0.654861 -0.816706 -0.239807 0.524865
-0.909632 0.000000 0.415415 -0.816706 -0.239807 0.524865
-0.635777 -0.408589 0.654861 -0.643080 -0.188826 0.742154
-0.454816 -0.292293 0.841254 -0.643080 -0.188826 0.742154
-0.540641 0.000000 0.841254 -0.643080 -0.188826 0.742154
-0.755749 -0.000000 0.654861 -0.643080 -0.188826 0.742154
-0.281733 0.000000 0.959493 -0.412359 -0.121080 0.902940
-0.540641 0.000000 0.841254 -0.412359 -0.121080 0.902940
-0.454816 -0.292293 0.841254 -0.412359 -0.121080 0.902940
-0.237008 -0.152316 0.959493 -0.412359 -0.121080 0.902940
-0.237008 -0.152316 0.959493 -0.142191 -0.041751 0.988958
-0.000000 -0.000000 1.000000 -0.142191 -0.041751 0.988958
-0.281733 0.000000 0.959493 -0.142191 -0.041751 0.988958
4 0 1 2 3
4 4 5 6 7
4 8 9 10 11
4 12 13 14 15
4 16 17 18 19
4 20 21 22 23
4 24 25 26 27
4 28 29 30 31
4 32 33 34 35
4 36 37 38 39
4 40 41 42 43
4 44 45 46 47
4 48 49 50 51
4 52 53 54 55
4 56 57 58 59
4 60 61 62 63
4 64 65 66 67
4 68 69 70 71
4 72 73 74 75
4 76 77 78 79
4 80 81 82 83
4 84 85 86 87
4 88 89 90 91
4 92 93 94 95
4 96 97 98 99
4 100 101 102 103
4 104 105 106 107
4 108 109 110 111
4 112 113 114 115
4 116 117 118 119
4 120 121 122 123
4 124 125 126 127
4 128 129 130 131
4 132 133 134 135
4 136 137 138 139
4 140 141 142 143
4 144 145 146 147
4 148 149 150 151
4 152 153 154 155
4 156 157 158 159
4 160 161 162 163
4 164 165 166 167
4 168 169 170 171
4 172 173 174 175
4 176 177 178 179
4 180 181 182 183
4 184 185 186 187
4 188 189 190 191
4 192 193 194 195
4 196 197 198 199
4 200 201 202 203
4 204 205 206 207
4 208 209 210 211
4 212 213 214 215
4 216 217 218 219
4 220 221 222 223
4 224 225 226 227
4 228 229 230 231
4 232 233 234 235
4 236 237 238 239
4 240 241 242 243
4 244 245 246 247
4 248 249 250 251
4 252 253 254 255
4 256 257 258 259
4 260 261 262 263
4 264 265 266 267
4 268 269 270 271
4 272 273 274 275
4 276 277 278 279
4 280 281 282 283
4 284 285 286 287
4 288 289 290 291
4 292 293 294 295
4 296 297 298 299
4 300 301 302 303
4 304 305 306 307
4 308 309 310 311
4 312 313 314 315
4 316 317 318 319
4 320 321 322 323
4 324 325 326 327
4 328 329 330 331
4 332 333 334 335
4 336 337 338 339
4 340 341 342 343
3 344 345 346
4 347 348 349 350
4 351 352 353 354
4 355 356 357 358
4 359 360 361 362
4 363 364 365 366
4 367 368 369 370
3 371 372 373
3 374 375 376
3 377 378 379
3 380 381 382
3 383 384 385
3 386 387 388
3 389 390 391
3 392 393 394
3 395 396 397
3 398 399 400
3 401 402 403
3 404 405 406
3 407 408 409
3 410 411 412
3 413 414 415
3 416 417 418
3 419 420 421
3 422 423 424
3 425 426 427
3 428 429 430
4 431 432 433 434
4 435 436 437 438
4 439 440 441 442
4 443 444 445 446
4 447 448 449 450
4 451 452 453 454
4 455 456 457 458
3 459 460 461
